<svg xmlns="http://www.w3.org/2000/svg" viewBox="0 0 48 48"><title>scissors</title><g id="scissors"><path d="M12.67,33.73l-1.34-.11a3,3,0,0,0-3,1.79c-1.8,4.14-2.84,5.45-1.67,7.23C7.63,44.12,9,44,10.29,44A3,3,0,0,0,13,42.34l2.14-4.28A3,3,0,0,0,12.67,33.73Zm.66,3.44c-2.26,4.52-2.21,4.83-3,4.83-1.15,0-1.59.09-1.95-.45s-.21-.66,1.84-5.34a1,1,0,0,1,1-.59c1.45.11,1.81,0,2.13.61A1,1,0,0,1,13.33,37.17Z"/><path d="M45.85,39.6l-3.1-7.09c-1.63-3.74-5.54-2.72-6.47-3.65l-2.93-2.92a2,2,0,0,0-2.14-.45l-3-4.58,5.87-9.78A11.92,11.92,0,0,0,34.93.63,1,1,0,0,0,34.1,0c-.85-.09-.24-.62-10.1,14.46C14.18-.55,14.76-.08,13.9,0a1,1,0,0,0-.83.63,11.92,11.92,0,0,0,.84,10.5l5.87,9.78-3,4.59a2,2,0,0,0-2.14.44l-2.93,2.93c-.94.94-4.84-.1-6.47,3.64L2.15,39.6A6,6,0,0,0,7.65,48h3.88A5,5,0,0,0,16,45.24c6.91-13.82,7.16-13.62,6.54-14.87L24,27.93l1.46,2.44c-.62,1.25-.37,1.05,6.54,14.87A5,5,0,0,0,36.47,48h3.88A6,6,0,0,0,45.85,39.6ZM33.64,3.39a9.94,9.94,0,0,1-1.27,6.71L21.07,28.93l-2.68-2.24Zm-18,6.71a9.88,9.88,0,0,1-1.26-6.71l8.44,12.9L21,19.05ZM14.21,44.34A3,3,0,0,1,11.53,46H7.65A4,4,0,0,1,4,40.4l3.1-7.09c1.18-2.69,4.35-1.32,6.06-3l2.92-2.93,4.69,3.91ZM27.07,22.81l2.54,3.88-2.68,2.24L25.17,26ZM43.7,44.19C42.2,46.48,40,46,36.47,46a3,3,0,0,1-2.68-1.66L27.25,31.26l4.69-3.91c4.11,4.11,2.92,3.44,6.82,4.22a3,3,0,0,1,2.16,1.74L44,40.4A3.91,3.91,0,0,1,43.7,44.19Z"/><path d="M39.66,35.41a3,3,0,0,0-3-1.79l-1.34.11a3,3,0,0,0-2.45,4.33L35,42.34A3,3,0,0,0,37.71,44c1.21,0,2.63.16,3.62-1.36S41.7,40.1,39.66,35.41Zm0,6.14c-.34.51-.69.45-1.95.45-.82,0-.76-.28-3-4.83a1,1,0,0,1,.82-1.45c.95-.07,2-.36,2.33.49C39.81,40.77,40.07,40.93,39.66,41.55Z"/><path d="M23.08,21.38a1,1,0,0,0,1.84,0,1,1,0,0,0-.09-.93A1,1,0,0,0,23.08,21.38Z"/></g></svg>